<?xml version="1.0" encoding="utf-8"?>
<!-- Generator: Adobe Illustrator 22.1.0, SVG Export Plug-In . SVG Version: 6.00 Build 0)  -->
<svg version="1.1" id="Layer_1" xmlns="http://www.w3.org/2000/svg" xmlns:xlink="http://www.w3.org/1999/xlink" x="0px" y="0px"
	 viewBox="0 0 376.9 540.4" style="enable-background:new 0 0 376.9 540.4;" xml:space="preserve">
<style type="text/css">
	.st0{clip-path:url(#SVGID_2_);fill:#B4C50B;}
	.st1{clip-path:url(#SVGID_4_);fill:#FFFFFF;}
</style>
<g>
	<defs>
		<rect id="SVGID_1_" width="376.9" height="540.4"/>
	</defs>
	<clipPath id="SVGID_2_">
		<use xlink:href="#SVGID_1_"  style="overflow:visible;"/>
	</clipPath>
	<path class="st0" d="M376.8,264.5C374.2,112.8,306.5,9.3,145.2,2.3C72.6-0.9,0-7.1,0,35.3v476.5c0,33.8,95,28.8,160.2,27.6
		C322.8,536.5,379.3,414.8,376.8,264.5"/>
</g>
<g>
	<defs>
		<path id="SVGID_3_" d="M79.3,0C34.4,0,0.2,6.2,0,35V512c0.2,24.1,48.9,28.3,100.4,28.4h1.6c19.9,0,40.2-0.6,58.2-1
			c162.6-2.9,219.2-124.7,216.6-274.9C374.2,112.8,306.5,9.3,145.2,2.3C122.5,1.3,99.8,0,79.3,0z"/>
	</defs>
	<clipPath id="SVGID_4_">
		<use xlink:href="#SVGID_3_"  style="overflow:visible;"/>
	</clipPath>
	<path class="st1" d="M121.3,432.3H-4.9v25.9h41.6c-0.8,3.4-1.5,7.9-1.5,13.2c0,23.2,17.7,39.6,46.6,39.6c30.1,0,46.1-17,46.1-44.3
		C128,451.2,125.7,440.5,121.3,432.3 M110.1,458.2c1,1.8,1.4,4.5,1.4,8c0,13.2-11.2,19.1-30.8,19.1c-18.5,0-30.9-5.5-30.9-19.9
		c0-2.7,0.3-5,1-7.2H110.1z"/>
	<path class="st1" d="M121.3,347.1H67.5c-24.4,0-32.9,15.1-32.9,35.5c0,15.9,4.2,27.6,6.9,33.9l14.9-5.7c-2.7-5.8-5.5-14.7-5.5-23.4
		c0-9.5,2.7-15.9,12-15.9H67c2.5,27.1,9.4,50.3,32.6,50.3c18.7,0,28.4-13.4,28.4-39.5C128,366.8,125.3,354.6,121.3,347.1
		 M111.8,371.5c1.2,2.3,1.8,5.7,1.8,9.5c0,10.4-4.5,16.4-15,16.4c-14.4,0-18.1-10.2-19.6-25.9H111.8z"/>
	<path class="st1" d="M125.2,294.6h-16.1c0.7,2.2,1,3.3,1,5.5c0,5.9-3.7,8.4-10.5,8.4H53.1v-13.9H36.2v13.9h-47.3v26.1h112.7
		c13.9,0,26.1-8.2,26.1-27.1C127.7,301.5,126.2,296.8,125.2,294.6"/>
	<path class="st1" d="M81.2,206.6c-26.9,0-46.6,13.7-46.6,40c0,25.9,19.7,39.6,46.6,39.6c26.9,0,46.8-13.7,46.8-39.8
		C128,220.3,108.1,206.6,81.2,206.6 M80.9,232.5c16.2,0,29.4,2.3,29.4,13.9c0,11.4-13.2,13.9-29.4,13.9c-16.1,0-30.1-2.3-30.1-13.9
		C50.7,234.8,64.8,232.5,80.9,232.5"/>
	<path class="st1" d="M99.4,141.4c-10.5,0-19.1,4-26.4,21.4c-3,7-6.4,11.5-12.4,11.5c-5.2,0-9.4-3.5-9.4-10.4c0-5.9,2.5-11,4.7-13.7
		l-14.9-6.4c-4.3,7-6.5,14.7-6.5,25.9c0,18.1,12.4,30.1,27.8,30.1c9.4,0,18.6-3.7,25.1-20.2c3.3-8.4,6.7-11.5,12.7-11.5
		c5.7,0,9.9,4.5,9.9,11.2c0,6.5-2.5,12.7-5.2,16.1l16.6,6.7c3.7-5.5,6.5-15.4,6.5-26.4C127.8,154.3,115.1,141.4,99.4,141.4"/>
	<path class="st1" d="M53.2,89.9c-11.5,0-20.7,9.4-20.7,20.7c0,11.4,9.2,20.8,20.7,20.8c11.5,0,20.8-9.4,20.8-20.8
		C73.9,99.3,64.7,89.9,53.2,89.9 M53.2,93.6c9.5,0,17.2,7.5,17.2,17.1c0,9.5-7.7,17.1-17.2,17.1c-9.4,0-17.2-7.6-17.2-17.1
		C35.9,101.1,43.8,93.6,53.2,93.6 M64.8,101.7l-10.6,7.5c-0.6-3.6-2.9-6.1-6.7-6.1c-3.8,0-7,3-7,8.5c0,2.3,0.5,4.5,1.3,6.1h22.9
		v-3.8H54.5v-0.5l10.3-6.8V101.7z M47.5,107c3.3,0,4.4,2.1,4.4,5.4v1.5H44c-0.2-0.5-0.3-1.2-0.3-2C43.7,109.6,44.3,107,47.5,107"/>
</g>
</svg>
